<mxfile host="app.diagrams.net" modified="2022-11-24T15:26:45.686Z" agent="5.0 (Windows NT 10.0; Win64; x64) AppleWebKit/537.36 (KHTML, like Gecko) Chrome/107.0.0.0 Safari/537.36" version="20.6.0" etag="E_meMEDkHc4XuEaRxN2j" type="github">
  <diagram id="CHKOwlmzpnBvVozuTVd4" name="第 1 页">
    <mxGraphModel dx="782" dy="528" grid="1" gridSize="10" guides="1" tooltips="1" connect="1" arrows="1" fold="1" page="1" pageScale="1" pageWidth="827" pageHeight="1169" math="0" shadow="0">
      <root>
        <mxCell id="0" />
        <mxCell id="1" parent="0" />
        <mxCell id="ud2yt6ZdF76ImCgO1g_e-1" value="" style="shape=image;html=1;verticalAlign=top;verticalLabelPosition=bottom;labelBackgroundColor=#ffffff;imageAspect=0;aspect=fixed;image=https://cdn0.iconfinder.com/data/icons/green-world/80/Green_World-03-128.png" vertex="1" parent="1">
          <mxGeometry x="340" y="190" width="128" height="128" as="geometry" />
        </mxCell>
        <mxCell id="ud2yt6ZdF76ImCgO1g_e-2" value="a need/some user" style="text;html=1;strokeColor=none;fillColor=none;align=center;verticalAlign=middle;whiteSpace=wrap;rounded=0;" vertex="1" parent="1">
          <mxGeometry x="220" y="300" width="120" height="30" as="geometry" />
        </mxCell>
        <mxCell id="ud2yt6ZdF76ImCgO1g_e-3" value="more user" style="text;html=1;strokeColor=none;fillColor=none;align=center;verticalAlign=middle;whiteSpace=wrap;rounded=0;" vertex="1" parent="1">
          <mxGeometry x="374" y="150" width="60" height="30" as="geometry" />
        </mxCell>
        <mxCell id="ud2yt6ZdF76ImCgO1g_e-4" value="more developer" style="text;html=1;strokeColor=none;fillColor=none;align=center;verticalAlign=middle;whiteSpace=wrap;rounded=0;" vertex="1" parent="1">
          <mxGeometry x="480" y="300" width="100" height="30" as="geometry" />
        </mxCell>
        <mxCell id="ud2yt6ZdF76ImCgO1g_e-7" style="edgeStyle=orthogonalEdgeStyle;rounded=0;orthogonalLoop=1;jettySize=auto;html=1;startArrow=classic;startFill=1;" edge="1" parent="1" source="ud2yt6ZdF76ImCgO1g_e-5" target="ud2yt6ZdF76ImCgO1g_e-6">
          <mxGeometry relative="1" as="geometry" />
        </mxCell>
        <mxCell id="ud2yt6ZdF76ImCgO1g_e-5" value="frontend" style="rounded=1;whiteSpace=wrap;html=1;" vertex="1" parent="1">
          <mxGeometry x="160" y="680" width="120" height="60" as="geometry" />
        </mxCell>
        <mxCell id="ud2yt6ZdF76ImCgO1g_e-14" style="edgeStyle=orthogonalEdgeStyle;rounded=0;orthogonalLoop=1;jettySize=auto;html=1;entryX=0;entryY=0.5;entryDx=0;entryDy=0;startArrow=classic;startFill=1;" edge="1" parent="1" source="ud2yt6ZdF76ImCgO1g_e-6" target="ud2yt6ZdF76ImCgO1g_e-9">
          <mxGeometry relative="1" as="geometry" />
        </mxCell>
        <mxCell id="ud2yt6ZdF76ImCgO1g_e-15" style="edgeStyle=orthogonalEdgeStyle;rounded=0;orthogonalLoop=1;jettySize=auto;html=1;entryX=0;entryY=0.5;entryDx=0;entryDy=0;startArrow=classic;startFill=1;" edge="1" parent="1" source="ud2yt6ZdF76ImCgO1g_e-6" target="ud2yt6ZdF76ImCgO1g_e-13">
          <mxGeometry relative="1" as="geometry" />
        </mxCell>
        <mxCell id="ud2yt6ZdF76ImCgO1g_e-6" value="backend" style="rounded=1;whiteSpace=wrap;html=1;" vertex="1" parent="1">
          <mxGeometry x="390" y="680" width="120" height="60" as="geometry" />
        </mxCell>
        <mxCell id="ud2yt6ZdF76ImCgO1g_e-8" value="Actor" style="shape=umlActor;verticalLabelPosition=bottom;verticalAlign=top;html=1;outlineConnect=0;" vertex="1" parent="1">
          <mxGeometry x="40" y="680" width="30" height="60" as="geometry" />
        </mxCell>
        <mxCell id="ud2yt6ZdF76ImCgO1g_e-9" value="" style="rounded=1;whiteSpace=wrap;html=1;" vertex="1" parent="1">
          <mxGeometry x="590" y="620" width="120" height="60" as="geometry" />
        </mxCell>
        <mxCell id="ud2yt6ZdF76ImCgO1g_e-10" value="" style="rounded=1;whiteSpace=wrap;html=1;" vertex="1" parent="1">
          <mxGeometry x="600" y="630" width="120" height="60" as="geometry" />
        </mxCell>
        <mxCell id="ud2yt6ZdF76ImCgO1g_e-11" value="builder" style="rounded=1;whiteSpace=wrap;html=1;" vertex="1" parent="1">
          <mxGeometry x="610" y="640" width="120" height="60" as="geometry" />
        </mxCell>
        <mxCell id="ud2yt6ZdF76ImCgO1g_e-12" value="repo" style="shape=cylinder3;whiteSpace=wrap;html=1;boundedLbl=1;backgroundOutline=1;size=15;" vertex="1" parent="1">
          <mxGeometry x="810" y="630" width="60" height="80" as="geometry" />
        </mxCell>
        <mxCell id="ud2yt6ZdF76ImCgO1g_e-13" value="ebs" style="shape=process;whiteSpace=wrap;html=1;backgroundOutline=1;" vertex="1" parent="1">
          <mxGeometry x="590" y="810" width="250" height="130" as="geometry" />
        </mxCell>
        <mxCell id="ud2yt6ZdF76ImCgO1g_e-16" value="repo" style="shape=cylinder3;whiteSpace=wrap;html=1;boundedLbl=1;backgroundOutline=1;size=15;" vertex="1" parent="1">
          <mxGeometry x="870" y="800" width="60" height="80" as="geometry" />
        </mxCell>
        <mxCell id="ud2yt6ZdF76ImCgO1g_e-17" value="repo" style="shape=cylinder3;whiteSpace=wrap;html=1;boundedLbl=1;backgroundOutline=1;size=15;" vertex="1" parent="1">
          <mxGeometry x="870" y="890" width="60" height="80" as="geometry" />
        </mxCell>
      </root>
    </mxGraphModel>
  </diagram>
</mxfile>
